<?xml version="1.0" standalone="no"?>
<!DOCTYPE svg PUBLIC "-//W3C//DTD SVG 20010904//EN"
 "http://www.w3.org/TR/2001/REC-SVG-20010904/DTD/svg10.dtd">
<svg version="1.0" xmlns="http://www.w3.org/2000/svg"
 width="1080.000000pt" height="1080.000000pt" viewBox="0 0 1080.000000 1080.000000"
 preserveAspectRatio="xMidYMid meet">
<metadata>
Created by potrace 1.14, written by Peter Selinger 2001-2017
</metadata>
<g transform="translate(0.000000,1080.000000) scale(0.100000,-0.100000)"
fill="#000000" stroke="none">
<path d="M0 5785 l0 -5015 385 0 385 0 0 -385 0 -385 5015 0 5015 0 0 5015 0
5015 -385 0 -385 0 0 385 0 385 -5015 0 -5015 0 0 -5015z m9256 -386 l1 -3856
-3856 1 -3856 1 -1 3856 -1 3856 3856 -1 3856 -1 1 -3856z"/>
<path d="M3097 7710 c-9 -4 -12 -514 -12 -2315 l1 -2309 769 0 770 0 5 964 5
965 765 0 765 0 3 385 2 385 -757 0 c-417 -1 -764 1 -770 3 -10 3 -13 205 -13
963 0 527 -3 960 -7 960 -27 4 -1516 3 -1526 -1z"/>
<path d="M6179 7709 c-5 -3 -8 -396 -7 -964 l3 -960 768 0 c504 0 767 3 768
10 1 6 2 437 3 958 1 623 -2 951 -9 955 -12 8 -1513 9 -1526 1z"/>
<path d="M6172 4050 l3 -965 767 0 c503 0 769 3 771 10 2 9 1 1868 -2 1905 -1
13 -93 15 -771 15 l-770 0 2 -965z"/>
</g>
</svg>
